HIERARCHY
ROOT Hips
{
	OFFSET	0.00	0.00	0.00
	CHANNELS 6 Xposition Yposition Zposition Zrotation Xrotation Yrotation
	JOINT Spine
	{
		OFFSET	 0.00	0.01	 0.00
		CHANNELS 3 Zrotation Xrotation Yrotation
		JOINT Spine1
		{
			OFFSET	 0.00	 2.45913012437421	 0.00
			CHANNELS 3 Zrotation Xrotation Yrotation
            JOINT Neck
            {
                OFFSET	 0.00	 2.48462964506057	 0.00
                CHANNELS 3 Zrotation Xrotation Yrotation
                JOINT Head
                {
                    OFFSET	 0.00	 0.927524780924562	 0.00
                    CHANNELS 3 Zrotation Xrotation Yrotation
                    End Site 
                    {
                        OFFSET	 0.00	 1.14999962169752	 0.00
                    }
                }
            }
			JOINT LeftShoulder
			{
				OFFSET	 0.00	 2.48462964506057	 0.00
				CHANNELS 3 Zrotation Xrotation Yrotation
				JOINT LeftUpArm
				{
					OFFSET	 0.00	 1.24881979654096	 0.00
					CHANNELS 3 Zrotation Xrotation Yrotation
					JOINT LeftForeArm
					{
						OFFSET	 0.00	2.59758046908119	 0.00
						CHANNELS 3 Zrotation Xrotation Yrotation
						JOINT LeftHand
						{
							OFFSET	 0.00	2.45542024364365	 0.00
							CHANNELS 3 Zrotation Xrotation Yrotation
							JOINT LeftHandThumb 
							{
								OFFSET	 0.00	0.00	 0.00
								CHANNELS 3 Zrotation Xrotation Yrotation
								End Site
								{
									OFFSET	 0.00	0.00	1.00000003353624
								}
							}
							JOINT L_Wrist_End 
							{
								OFFSET	 0.00	0.99999967115358	 0.00
								CHANNELS 3 Zrotation Xrotation Yrotation
								End Site 
								{
									OFFSET	 0.00	 0.00	 0.00
								}
							}
						}
					}
				}
			}
			JOINT RightShoulder
			{
				OFFSET	 0.00	 2.48462964506057	 0.00
				CHANNELS 3 Zrotation Xrotation Yrotation
				JOINT RightUpArm
				{
					OFFSET	 0.00	 1.24881979654096	 0.00
					CHANNELS 3 Zrotation Xrotation Yrotation
					JOINT RightForeArm
					{
						OFFSET	 0.00	2.59758046908119	 0.00
						CHANNELS 3 Zrotation Xrotation Yrotation
						JOINT RightHand
						{
							OFFSET	 0.00	2.45542024364365	 0.00
							CHANNELS 3 Zrotation Xrotation Yrotation
							JOINT RightHandThumb 
							{
								OFFSET	 0.00	0.00	 0.00
								CHANNELS 3 Zrotation Xrotation Yrotation
								End Site
								{
									OFFSET	 0.00	0.00	1.00000003353624
								}
							}
							JOINT R_Wrist_End 
							{
								OFFSET	 0.00	0.99999967115358	 0.00
								CHANNELS 3 Zrotation Xrotation Yrotation
								End Site 
								{
									OFFSET	 0.00	 0.00	 0.00
								}
							}
						}
					}
				}
			}
		}
	}
	JOINT LeftUpLeg
	{
		OFFSET	 1.2719394002717	 0.00	 0.00
		CHANNELS 3 Zrotation Xrotation Yrotation
		JOINT LeftLowLeg
		{
			OFFSET	 0.00	-4.3429100912261	 0.00
			CHANNELS 3 Zrotation Xrotation Yrotation
			JOINT LeftFoot
			{
				OFFSET	 0.00	-4.48767017425826	 0.00
				CHANNELS 3 Zrotation Xrotation Yrotation
				JOINT LeftToeBase
                {
                    OFFSET	 0.00	0.00	 1.51507020887566
                    CHANNELS 3 Zrotation Xrotation Yrotation
                    End Site 
                    {
                        OFFSET	 0.00	0.00	 0.75000010571191
                    }
                }
			}
		}
	}
	JOINT RightUpLeg
	{
		OFFSET	 -1.2719393604653	 0.00	 0.00
		CHANNELS 3 Zrotation Xrotation Yrotation
		JOINT RightLowLeg
		{
			OFFSET	 0.00	-4.3429100912261	 0.00
			CHANNELS 3 Zrotation Xrotation Yrotation
			JOINT RightFoot
			{
				OFFSET	 0.00	-4.48767017425826	 0.00
				CHANNELS 3 Zrotation Xrotation Yrotation
				JOINT RightToeBase
                {
                    OFFSET	 0.00	0.00	 1.51507020887566
                    CHANNELS 3 Zrotation Xrotation Yrotation
                    End Site 
                    {
                        OFFSET	 0.00	0.00	 0.749999965609858
                    }
                }   
			}
		}
	}
}
MOTION 
Frames:	18 
Frame Time: 0.02 
  -5.2206201171875 -3.4450299072265627 9.160999755859375 -151.142 85.3052 905.61 3.02753 -16.079 -2.73221 -0.92012 19.3213 3.70653 2.06573 43.2577 360.864 -60.2051 -87.6564 -771.206 -113.0772 -3.17123 361.612 -25.977 11.4929 -7.17497 0.0 129.126 0.0 -22.2064 -39.6207 10.342 0.0 0.0 0.0 0.0 0.0 0.0 117.3088 -4.00648 -361.513 29.6776 9.748 -14.3493 0.0 125.113 0.0 3.79198 -10.7753 -15.6668 0.0 0.0 0.0 0.0 0.0 0.0 2.174 -20.4562 -18.2957 0.0 32.0259 0.0 -24.7194 -4.8461 -0.695293 0.0 -22.92007 0.0 8.86416 -10.9765 5.88952 0.0 22.4346 0.0 25.4202 -13.8337 -11.0422 0.0 -16.40862 0.0 
  -5.188480224609375 -3.44885009765625 9.170029907226562 -154.872 85.0073 909.036 2.84755 -16.4435 -2.69996 -1.31233 19.0441 3.75757 2.77263 43.492 360.668 -52.7912 -88.091 -763.836 -112.9366 -3.1157 361.598 -25.5876 11.6682 -7.3664 0.0 129.183 0.0 -22.9903 -39.8173 9.64927 0.0 0.0 0.0 0.0 0.0 0.0 117.581 -4.0146 -361.38 29.6978 9.61013 -14.4858 0.0 124.874 0.0 5.26065 -10.9027 -14.2113 0.0 0.0 0.0 0.0 0.0 0.0 1.54457 -19.991 -18.5733 0.0 30.9329 0.0 -22.286 -4.5284996 1.78357 0.0 -23.03342 0.0 8.39549 -11.1171 6.05738 0.0 22.4716 0.0 25.3786 -13.808001 -10.9237 0.0 -16.53045 0.0 
  -5.154990234375 -3.4520001220703125 9.178460083007813 -157.858 84.7952 911.672 2.66989 -16.7322 -2.63821 -1.63047 18.7966 3.86602 3.4502 43.5994 360.385 -41.8579 -88.3619 -752.926 -112.8396 -3.02179 361.554 -25.2937 11.6801 -7.55764 0.0 129.22 0.0 -22.6333 -39.2071 9.47426 0.0 0.0 0.0 0.0 0.0 0.0 117.6537 -3.96532 -361.502 29.7997 9.56357 -14.3777 0.0 124.846 0.0 6.6933 -11.442 -13.5339 0.0 0.0 0.0 0.0 0.0 0.0 1.01918 -19.5912 -18.742 0.0 30.4323 0.0 -21.5052 -4.8292007 3.30282 0.0 -22.582119 0.0 7.98457 -11.1597 6.2983 0.0 22.4964 0.0 25.4899 -13.850901 -10.7885 0.0 -16.47762 0.0 
  -5.122150268554687 -3.4538299560546877 9.18666015625 -160.824 84.6765 914.238 2.50965 -16.8563 -2.51045 -2.01918 18.4742 3.9974 4.19071 43.7154 359.968 -29.9832 -88.5703 -741.057 -112.765305 -2.97356 361.563 -25.159 11.8539 -7.89719 0.0 129.263 0.0 -22.3515 -38.6587 9.20204 0.0 0.0 0.0 0.0 0.0 0.0 117.7484 -4.01626 -361.335 29.8842 9.55197 -14.4427 0.0 124.789 0.0 8.83779 -11.8268 -12.8403 0.0 0.0 0.0 0.0 0.0 0.0 0.623462 -19.2359 -18.6892 0.0 30.0349 0.0 -21.0707 -4.6744003 4.23268 0.0 -22.06859 0.0 7.60716 -11.1317 6.56993 0.0 22.5714 0.0 25.9784 -14.0208 -10.5039 0.0 -16.20768 0.0 
  -5.087760009765625 -3.457070007324219 9.194199829101562 -163.613 84.6299 916.493 2.40454 -16.9621 -2.27603 -2.43336 18.2333 4.20425 5.02555 43.7942 359.355 -16.207 -88.6146 -727.201 -112.7242 -2.92885 361.532 -25.1862 12.0876 -8.19514 0.0 129.259 0.0 -21.9039 -38.1625 9.12215 0.0 0.0 0.0 0.0 0.0 0.0 117.769104 -4.05068 -361.343 29.9558 9.64361 -14.3354 0.0 124.768 0.0 10.7815 -12.1588 -13.1612 0.0 0.0 0.0 0.0 0.0 0.0 0.492819 -18.7163 -18.1192 0.0 29.4375 0.0 -21.0788 -4.497999 4.32665 0.0 -21.96334 0.0 7.25942 -11.0541 6.94519 0.0 22.6962 0.0 26.1515 -14.0494 -10.3325 0.0 -16.17273 0.0 
  -5.053370056152343 -3.4626800537109377 9.200499877929687 -166.844 84.7188 919.157 2.25793 -17.0044 -2.07153 -2.82756 18.0851 4.41971 5.50941 43.9964 359.107 -6.29054 -88.6629 -717.509 -112.7154 -2.93381 361.618 -25.397 12.4172 -8.67217 0.0 129.147 0.0 -21.667 -37.7696 8.84224 0.0 0.0 0.0 0.0 0.0 0.0 117.717804 -3.98676 -361.414 30.0254 9.77375 -14.4033 0.0 124.71 0.0 11.7303 -12.5093 -15.1787 0.0 0.0 0.0 0.0 0.0 0.0 0.525814 -17.9281 -17.1527 0.0 28.581 0.0 -20.9667 -4.300699 3.93245 0.0 -21.856781 0.0 6.92874 -10.8568 7.27035 0.0 22.9011 0.0 26.2508 -14.0828 -10.166 0.0 -16.14954 0.0 
  -5.016239929199219 -3.4662298583984374 9.206110229492188 -170.431 84.8793 922.108 2.20422 -16.994 -1.76037 -3.30508 17.9848 4.65543 6.16604 44.3249 358.676 5.17774 -88.6991 -706.052 -112.8192 -2.95876 361.764 -25.5947 12.8235 -8.91368 0.0 128.883 0.0 -20.8364 -37.2367 8.63305 0.0 0.0 0.0 0.0 0.0 0.0 117.7086 -3.95792 -361.524 29.9721 10.0817 -14.4328 0.0 124.396 0.0 13.8822 -12.7492 -13.9441 0.0 0.0 0.0 0.0 0.0 0.0 0.504555 -17.0957 -16.3062 0.0 27.8766 0.0 -20.9803 -4.1709003 3.53685 0.0 -21.79203 0.0 6.57702 -10.6096 7.59018 0.0 23.1413 0.0 26.314 -14.068199 -9.94333 0.0 -16.19722 0.0 
  -4.9775698852539065 -3.46885009765625 9.20968994140625 -173.372 85.0036 924.469 2.2405 -17.1027 -1.40883 -3.85246 17.9863 4.85668 6.82679 44.7476 358.247 15.6129 -88.6168 -695.704 -112.8957 -2.9821 362.011 -25.8848 13.3123 -8.75616 0.0 128.417 0.0 -19.3836 -36.243 8.56296 0.0 0.0 0.0 0.0 0.0 0.0 117.7495 -3.95015 -361.554 29.8582 10.4783 -14.7644 0.0 124.0 0.0 13.9846 -13.3005 -15.06 0.0 0.0 0.0 0.0 0.0 0.0 0.433416 -16.4231 -15.5345 0.0 27.398 0.0 -20.9255 -4.16 3.26083 0.0 -21.784939 0.0 6.26656 -10.423 7.89869 0.0 23.4076 0.0 26.4751 -14.097601 -9.68033 0.0 -16.23768 0.0 
  -4.938059997558594 -3.470400085449219 9.212780151367188 -176.118 85.1769 926.656 2.30862 -17.3074 -1.05342 -4.42815 18.2249 5.06361 7.81451 45.2241 357.553 28.3156 -88.4445 -682.968 -112.9685 -3.03827 362.049 -26.3087 13.9852 -7.57317 0.0 127.73 0.0 -16.5452 -34.9018 8.79951 0.0 0.0 0.0 0.0 0.0 0.0 117.7306 -3.86259 -361.393 29.9224 10.7702 -15.2569 0.0 123.523 0.0 14.4313 -14.3809 -16.4403 0.0 0.0 0.0 0.0 0.0 0.0 0.303955 -15.7601 -14.9399 0.0 27.0518 0.0 -20.7439 -4.2756004 3.26471 0.0 -21.67657 0.0 6.01171 -10.251 8.22499 0.0 23.7833 0.0 26.5953 -14.1327 -9.48986 0.0 -16.27694 0.0 
  -4.896730041503906 -3.47197998046875 9.215830078125 -179.631 85.3899 929.704 2.40597 -17.4662 -0.708218 -5.09993 18.4395 5.19157 8.49528 45.9838 357.267 42.477 -88.4303 -669.057 -113.0456 -3.16827 361.667 -26.8621 14.5766 -4.60876 0.0 126.951 0.0 -10.4162 -32.5716 10.8694 0.0 0.0 0.0 0.0 0.0 0.0 117.9143 -3.69319 -361.347 29.8075 11.2204 -15.8095 0.0 123.169 0.0 16.334 -16.52 -19.0791 0.0 0.0 0.0 0.0 0.0 0.0 0.0950152 -15.0148 -14.3899 0.0 26.6428 0.0 -20.4092 -4.368 3.41021 0.0 -21.51076 0.0 5.72749 -10.0504 8.54577 0.0 24.2538 0.0 26.7126 -14.214899 -9.342 0.0 -16.32374 0.0 
  -4.854530029296875 -3.4736700439453125 9.21927978515625 175.606 85.7073 934.15 2.17787 -17.674 -0.639423 -5.29883 19.084 5.52959 9.11732 46.4729 356.893 58.9737 -88.5041 -652.805 -113.259 -3.13322 360.979 -27.6422 15.4006 0.0759436 0.0 126.301 0.0 -1.79617 -29.2488 13.462 0.0 0.0 0.0 0.0 0.0 0.0 117.8543 -3.76272 -361.298 29.5781 12.0842 -16.6055 0.0 122.735 0.0 16.6026 -18.7612 -22.7168 0.0 0.0 0.0 0.0 0.0 0.0 -0.202754 -14.1824 -14.1601 0.0 26.3128 0.0 -19.923 -4.4514008 3.76767 0.0 -21.40004 0.0 5.44227 -9.66373 8.8586 0.0 24.6636 0.0 26.8404 -14.3458 -9.32385 0.0 -16.37601 0.0 
  -4.8129098510742185 -3.4729901123046876 9.222869873046875 168.345 86.1748 941.283 1.96655 -17.5337 -0.659483 -5.53475 19.6264 5.69516 9.51868 46.7879 356.746 78.2717 -88.472 -633.646 -113.3887 -3.00775 360.564 -28.5103 16.4552 5.47738 0.0 125.976 0.0 6.06776 -25.7384 12.8849 0.0 0.0 0.0 0.0 0.0 0.0 117.877 -3.8443 -361.134 29.3844 13.1008 -18.1384 0.0 122.511 0.0 16.6919 -21.7646 -25.6349 0.0 0.0 0.0 0.0 0.0 0.0 -0.526291 -13.2232 -14.1507 0.0 26.0703 0.0 -19.5315 -4.483101 4.02791 0.0 -21.29816 0.0 5.13872 -9.13604 8.98668 0.0 25.1994 0.0 27.0336 -14.4401 -9.25044 0.0 -16.50679 0.0 
  -4.77260009765625 -3.4694198608398437 9.225239868164062 159.845 86.573 949.865 1.52398 -17.3948 -0.935896 -5.37809 20.3105 5.93722 9.64201 46.5076 356.693 89.0532 -88.3817 -622.842 -113.6693 -2.45982 360.991 -29.432 18.0747 10.8577 0.0 125.926 0.0 12.6661 -22.4164 12.4362 0.0 0.0 0.0 0.0 0.0 0.0 117.6418 -3.99992 -360.902 29.4301 14.4157 -19.3706 0.0 121.999 0.0 19.043 -23.8799 -30.0284 0.0 0.0 0.0 0.0 0.0 0.0 -0.861459 -12.4215 -14.2727 0.0 25.982 0.0 -19.1502 -4.4708004 4.1671 0.0 -21.32295 0.0 4.85479 -8.65319 8.90748 0.0 25.7896 0.0 27.3047 -14.6105995 -9.1776 0.0 -16.54008 0.0 
  -4.732929992675781 -3.4587799072265626 9.226439819335937 149.473 86.8497 960.433 1.18933 -16.9404 -1.17036 -5.33905 20.5699 5.99243 9.36951 45.9833 357.02 94.0216 -88.3015 -617.836 -114.0347 -1.72207 361.887 -30.1577 19.9963 15.4029 0.0 125.97 0.0 14.662 -19.0671 12.6107 0.0 0.0 0.0 0.0 0.0 0.0 117.4876 -4.29606 -360.813 29.5047 16.0911 -21.3528 0.0 121.44 0.0 21.5376 -26.8602 -30.4945 0.0 0.0 0.0 0.0 0.0 0.0 -1.25894 -11.6976 -14.5181 0.0 25.8928 0.0 -18.8629 -4.4330006 4.29213 0.0 -21.36008 0.0 4.47181 -8.2643 8.43986 0.0 26.4469 0.0 27.3803 -14.687 -8.99679 0.0 -16.60705 0.0 
  -4.695499877929688 -3.444110107421875 9.227550048828125 143.93 86.9104 966.224 1.04405 -16.6045 -1.27143 -5.48873 20.4779 5.90454 8.86882 45.4419 357.626 95.9176 -88.2082 -615.795 -114.7127 -0.701299 363.204 -30.3657 22.2511 18.4531 0.0 126.295 0.0 11.8615 -17.9529 13.426 0.0 0.0 0.0 0.0 0.0 0.0 117.4157 -4.46987 -361.026 29.5846 17.8454 -23.4972 0.0 120.747 0.0 21.2458 -29.8695 -36.4873 0.0 0.0 0.0 0.0 0.0 0.0 -1.63144 -11.3581 -14.8293 0.0 25.8162 0.0 -18.6154 -4.3894005 4.39013 0.0 -21.47228 0.0 4.12032 -8.15746 8.02263 0.0 26.9282 0.0 27.6001 -14.7742 -8.8141 0.0 -16.65089 0.0 
  -4.658710021972656 -3.4249301147460938 9.230540161132813 144.202 86.7983 966.114 0.964212 -16.4266 -1.36361 -5.51971 20.1081 5.77034 7.6524 44.9343 358.819 103.975 -88.3583 -607.898 -114.7609 0.177371 364.369 -30.7787 24.041 22.5912 0.0 126.284 0.0 11.9963 -16.2485 17.1621 0.0 0.0 0.0 0.0 0.0 0.0 117.1952 -4.43992 -361.113 29.8268 19.4638 -26.0178 0.0 119.954 0.0 22.3482 -32.732 -35.4821 0.0 0.0 0.0 0.0 0.0 0.0 -1.98803 -11.3334 -14.9886 0.0 25.6255 0.0 -18.363 -4.2677 4.46617 0.0 -21.44248 0.0 3.72136 -8.3745 7.63009 0.0 27.2665 0.0 27.8083 -14.7547 -8.5632 0.0 -16.70608 0.0 
  -4.6240301513671875 -3.4064700317382814 9.236110229492187 147.994 86.5522 962.352 0.809065 -16.518 -1.58881 -5.45154 19.7597 5.58804 5.97002 44.4197 360.516 115.735 -88.5029 -596.181 -115.094696 0.841946 365.129 -31.0625 26.285 26.343 0.0 126.039 0.0 11.5039 -17.7027 20.7241 0.0 0.0 0.0 0.0 0.0 0.0 116.943 -4.21638 -361.478 29.9587 21.3115 -28.1359 0.0 118.985 0.0 23.6706 -34.4537 -37.0063 0.0 0.0 0.0 0.0 0.0 0.0 -2.27173 -11.4574 -14.7974 0.0 25.242 0.0 -18.055 -4.0221996 4.41827 0.0 -21.463211 0.0 3.32355 -8.72329 7.48713 0.0 27.3621 0.0 28.0217 -14.7082 -8.3813 0.0 -16.70289 0.0 
  -4.5907901000976565 -3.3897698974609374 9.2439697265625 152.355 86.2222 957.815 1.05804 -16.5133 -1.22931 -5.86799 18.989 5.50134 4.90426 44.2125 361.567 132.747 -88.4413 -579.248 -114.849 1.46724 365.91 -31.4026 28.443 30.4254 0.0 125.273 0.0 12.31 -18.9198 23.5105 0.0 0.0 0.0 0.0 0.0 0.0 116.996704 -4.19088 -361.767 30.042 22.905 -30.9731 0.0 118.336 0.0 21.3485 -37.1191 -40.1053 0.0 0.0 0.0 0.0 0.0 0.0 -2.48643 -11.538 -14.2976 0.0 24.6153 0.0 -17.6738 -3.7077007 4.36939 0.0 -21.50101 0.0 2.94536 -9.06195 7.62267 0.0 27.2223 0.0 28.2819 -14.6385 -8.24436 0.0 -16.67233 0.0 
